<svg height="444pt" viewBox="0 -18 444.542 444" width="444pt" xmlns="http://www.w3.org/2000/svg" xmlns:xlink="http://www.w3.org/1999/xlink"><linearGradient id="linear0" gradientUnits="userSpaceOnUse" x1="89.354" x2="328.55" y1="35.956004" y2="450.256004"><stop offset="0" stop-color="#fe9001"/><stop offset="1" stop-color="#a11d5b"/></linearGradient><path d="m312.617188 143.371094c1.085937 3.140625 2.304687 6.28125 3.628906 9.339844 1.03125 2.300781.746094 4.980468-.75 7.011718-1.492188 2.03125-3.964844 3.101563-6.464844 2.800782-2.503906-.296876-4.65625-1.917969-5.628906-4.242188-1.46875-3.390625-2.820313-6.867188-4-10.339844-1.261719-3.65625.679687-7.640625 4.332031-8.902344 3.65625-1.261718 7.640625.679688 8.902344 4.332032zm-29.359376-24.636719c5.632813 12.996094-.332031 28.097656-13.324218 33.730469-12.992188 5.636718-28.09375-.328125-33.730469-13.324219-5.632813-12.992187.332031-28.09375 13.324219-33.730469 6.234375-2.75 13.308594-2.890625 19.648437-.386718 6.335938 2.503906 11.410157 7.441406 14.082031 13.707031zm-12.84375 5.574219c-2.558593-5.898438-9.414062-8.609375-15.316406-6.050782-5.898437 2.558594-8.609375 9.414063-6.050781 15.3125 2.558594 5.902344 9.414063 8.609376 15.316406 6.054688 5.894531-2.566406 8.601563-9.417969 6.050781-15.320312zm-96.613281 68.046875c-7.566406 2.191406-14.875 5.191406-21.796875 8.949219-3.398437 1.84375-4.660156 6.09375-2.8125 9.492187 1.84375 3.398437 6.09375 4.65625 9.492188 2.8125 6.035156-3.277344 12.410156-5.894531 19.011718-7.804687 3.695313-1.089844 5.820313-4.960938 4.746094-8.664063-1.070312-3.699219-4.933594-5.839844-8.640625-4.785156zm270.742188 157.171875c-.039063 32.292968-26.207031 58.460937-58.496094 58.496094h-311.199219c-41.339844 0-74.847656-33.507813-74.847656-74.84375 0-41.339844 33.507812-74.847657 74.847656-74.847657 8.632813-.011719 17.203125 1.5 25.316406 4.457031 5.886719-17.402343 16.042969-33.050781 29.542969-45.507812 1.832031-1.707031 4.441407-2.304688 6.835938-1.566406 2.394531.742187 4.207031 2.703125 4.761719 5.148437.550781 2.445313-.246094 4.996094-2.089844 6.691407-13.5 12.457031-23.125 28.535156-27.738282 46.3125-3.128906 15.292968-2.628906 31.105468 1.453126 46.171874.832031 2.382813.320312 5.027344-1.339844 6.925782-1.660156 1.898437-4.214844 2.753906-6.6875 2.242187-2.46875-.511719-4.472656-2.3125-5.246094-4.714843-4.402344-15.578126-5.375-31.929688-2.839844-47.921876-6.988281-2.777343-14.441406-4.214843-21.960937-4.234374-33.605469 0-60.847657 27.242187-60.847657 60.847656 0 33.601562 27.242188 60.84375 60.847657 60.84375h311.199219c23.230468.023437 42.5625-17.851563 44.359374-41.011719 1.792969-23.164063-14.554687-43.804687-37.511718-47.359375-3.742188-.582031-6.347656-4.035156-5.871094-7.792969 2.976562-23.246093-8.460938-45.96875-28.910156-57.421875-20.445313-11.453125-45.800782-9.335937-64.066406 5.347656-1.523438 1.222657-3.492188 1.753907-5.421876 1.464844-1.933593-.292968-3.65625-1.375-4.753906-2.992187-17.839844-26.390625-47.613281-42.210938-79.46875-42.222657-3.867187 0-7-3.132812-7-7 0-3.863281 3.132813-7 7-7 .453125 0 .898438.03125 1.351563.039063-14.597657-42.847656-7.894531-90.09375 18.046875-127.191406 25.9375-37.101563 68.011718-59.613281 113.269531-60.613281 2.832031-.050782 5.417969 1.617187 6.542969 4.21875 1.125 2.597656.570312 5.621093-1.402344 7.65625-13.800781 14.148437-24.148438 31.292968-30.238281 50.097656-.070313.265625-.15625.523437-.253907.773437-6.035156 18.894531-7.585937 38.933594-4.535156 58.53125.597656 3.820313-2.011718 7.402344-5.832031 8.003907-3.820313.597656-7.402344-2.011719-8-5.832032-2.652344-17.023437-2.167969-34.390625 1.429687-51.238281l-11.199218 4.851563c-8.949219 3.765624-19.265625-.375-23.128906-9.285157-3.863282-8.90625.164062-19.265625 9.027343-23.226562l44.402344-19.257813c2.132813-3.367187 4.375-6.671875 6.800781-9.859375-37.421875 5.789063-70.363281 27.835938-89.980468 60.222657-19.617188 32.386718-23.898438 71.792968-11.695313 107.636718l27.640625-12c8.980469-3.882812 19.40625.234375 23.308594 9.203125 1.539062 3.546875-.089844 7.667969-3.636719 9.207031-3.542969 1.539063-7.667969-.089843-9.207031-3.636718-.820313-1.882813-3.007813-2.746094-4.890625-1.933594l-17.953125 7.796875c22.589844 6.378906 42.542968 19.816406 56.949218 38.34375 10.851563-7.054687 23.441407-10.984375 36.378907-11.359375-2.476563-6.941406-1.800781-14.617188 1.84375-21.019531-5.746094-6.171875-10.921875-12.855469-15.464844-19.964844-2.027344-3.257813-1.054687-7.542969 2.183594-9.601563 3.238281-2.0625 7.53125-1.132812 9.625 2.082032 24.1875 37.578125 66.117187 59.945312 110.800781 59.101562 2.851562-.089844 5.464844 1.585938 6.578125 4.210938 1.132813 2.609375.570313 5.644531-1.417969 7.679687-12.296875 12.574219-26.835937 22.738281-42.863281 29.972657 1.730469 6.175781 2.617187 12.558593 2.636719 18.976562 0 .832031 0 1.671875-.058594 2.53125 25.5 6.820312 43.191406 29.976562 43.070312 56.371094zm-144.90625-294.390625c1.148437-3.292969 2.410156-6.542969 3.789062-9.753907l-28.347656 12.296876c-1.886719.816406-2.75 3.007812-1.933594 4.894531.816407 1.886719 3.007813 2.75 4.894531 1.933593zm94.203125 203.410156c9.0625-4.148437 17.609375-9.34375 25.460937-15.484375-29.222656-3.085938-56.789062-15.074219-78.976562-34.34375-.417969 2.207031-.171875 4.488281.710937 6.554688.648438 1.519531.734375 3.21875.242188 4.796874 22.679687 3.652344 42.226562 17.964844 52.5625 38.476563zm-213.226563-208.703125c.824219 2.535156.136719 5.3125-1.769531 7.171875l-19.152344 18.667969 4.519532 26.359375c.449218 2.628906-.628907 5.28125-2.785157 6.847656s-5.011719 1.773437-7.371093.535156l-23.671876-12.445312-23.671874 12.445312c-2.359376 1.238281-5.21875 1.03125-7.371094-.535156-2.15625-1.566406-3.238282-4.21875-2.785156-6.847656l4.519531-26.359375-19.152344-18.667969c-1.90625-1.859375-2.59375-4.640625-1.769531-7.175781.820312-2.535156 3.011718-4.382813 5.648437-4.765625l26.46875-3.84375 11.835938-24c1.179687-2.390625 3.613281-3.902344 6.277343-3.902344 2.667969 0 5.101563 1.511719 6.277344 3.902344l11.835938 24 26.464844 3.84375c2.640624.386719 4.828124 2.234375 5.652343 4.769531zm-21.699219 7.046875-16.070312-2.34375c-2.28125-.332031-4.253906-1.761719-5.273438-3.832031l-7.1875-14.566406-7.199218 14.5625c-1.019532 2.070312-2.992188 3.5-5.273438 3.832031l-16.070312 2.332031 11.636718 11.355469c1.644532 1.613281 2.394532 3.929687 2 6.199219l-2.742187 16 14.375-7.558594c2.039063-1.074219 4.476563-1.074219 6.515625 0l14.378906 7.558594-2.75-16c-.390625-2.269532.355469-4.585938 2-6.199219zm-120.382812 128.378906 9.746094-19.753906c1.710937-3.46875.289062-7.664063-3.179688-9.375s-7.664062-.289063-9.375 3.179687l-8.121094 16.453126-18.15625 2.632812c-2.636718.382812-4.828124 2.230469-5.652343 4.765625-.820313 2.535156-.136719 5.316406 1.773437 7.175781l13.136719 12.800782-3.101563 18.082031c-.449218 2.628906.628907 5.28125 2.785157 6.847656s5.011719 1.773437 7.371093.535156l16.238282-8.539062 16.242187 8.539062c2.359375 1.238281 5.214844 1.03125 7.371094-.535156s3.234375-4.21875 2.785156-6.847656l-3.101562-18.082031 13.140625-12.800782c1.910156-1.859375 2.59375-4.640625 1.773437-7.175781-.824219-2.535156-3.015625-4.382813-5.652343-4.765625l-21.796876-3.167969c-3.808593-.519531-7.324218 2.132813-7.875 5.9375-.550781 3.804688 2.074219 7.34375 5.875 7.921875l7.761719 1.125-5.601562 5.476563c-1.644531 1.609375-2.394531 3.929687-2 6.195312l1.328125 7.730469-6.941406-3.648438c-2.039063-1.074218-4.476563-1.074218-6.515626 0l-6.9375 3.648438 1.324219-7.730469c.390625-2.265625-.355469-4.585937-2-6.195312l-5.601562-5.476563 7.761719-1.125c2.25-.355468 4.1875-1.785156 5.195312-3.828125zm0 0" fill="url(#linear0)"/></svg>