<svg height="472pt" viewBox="0 -91 472.19211 472" width="472pt" xmlns="http://www.w3.org/2000/svg" xmlns:xlink="http://www.w3.org/1999/xlink"><linearGradient id="linear0" gradientUnits="userSpaceOnUse" x1="128.595854" x2="319.651854" y1="-11.957535" y2="318.958465"><stop offset="0" stop-color="#fe9001"/><stop offset="1" stop-color="#a11d5b"/></linearGradient><path d="m36.847656 213.5c2.875 2.527344 3.183594 6.890625.699219 9.800781-2.484375 2.910157-6.847656 3.285157-9.792969.839844-4.144531-3.542969-7.917968-7.507813-11.253906-11.820313-2.367188-3.058593-1.804688-7.457031 1.253906-9.824218 3.058594-2.367188 7.457032-1.804688 9.820313 1.253906 2.75 3.558594 5.859375 6.824219 9.273437 9.75zm-23.601562-19.332031c3.65625-1.265625 5.59375-5.25 4.328125-8.90625-6.875-19.933594-3.699219-41.960938 8.535156-59.136719 12.230469-17.179688 32.007813-27.386719 53.09375-27.40625 8.183594.023438 16.289063 1.613281 23.875 4.683594-2.753906 17.054687-1.746094 34.507812 2.949219 51.132812 1.226562 3.667969 5.191406 5.644532 8.859375 4.421875 3.667969-1.226562 5.644531-5.191406 4.421875-8.859375-4.332032-16.117187-4.867188-33.019531-1.566406-49.378906 10.136718-39.023438 42.1875-68.492188 81.921874-75.320312 39.734376-6.828126 79.785157 10.246093 102.367188 43.648437 1.097656 1.617187 2.820312 2.703125 4.753906 2.992187 1.933594.289063 3.898438-.242187 5.421875-1.464843 10.902344-8.828125 24.515625-13.621094 38.542969-13.578125 17.742188-.121094 34.664062 7.457031 46.386719 20.769531 11.726562 13.316406 17.101562 31.058594 14.742187 48.640625-.46875 3.757812 2.132813 7.207031 5.871094 7.789062 24.679688 3.8125 42.253906 25.992188 40.324219 50.886719-1.929688 24.894531-22.710938 44.101563-47.683594 44.0625-.105469 0-.207031.03125-.3125.035157-.371094-5.105469-1.429687-10.136719-3.140625-14.960938-1.300781-3.644531-5.308594-5.546875-8.953125-4.25-3.644531 1.300781-5.546875 5.308594-4.25 8.953125 4.726563 13.300781 2.703125 28.070313-5.433594 39.605469-8.132812 11.539062-21.359375 18.40625-35.476562 18.421875h-158.992188c-12.265625.035156-23.425781-7.085938-28.554687-18.230469-5.132813-11.140625-3.289063-24.253906 4.714844-33.546875 8.003906-9.296875 20.695312-13.070313 32.476562-9.652344 1.976562.566407 4.105469.234375 5.816406-.90625 1.710938-1.140625 2.835938-2.980469 3.070313-5.023437 3.082031-26.730469 23.496093-48.1875 50.042969-52.597656 26.542968-4.40625 52.796874 9.296874 64.355468 33.59375l.03125.046874.023438.070313c3.949218 9.324219 5.410156 19.511719 4.238281 29.570313-.539063 3.828124 2.128906 7.371093 5.957031 7.910156 3.828125.539062 7.367188-2.128906 7.90625-5.957032 1.179688-10.246093.277344-20.625-2.65625-30.511718 3.761719-1.074219 7.652344-1.628906 11.566406-1.644532 3.867188 0 7-3.132812 7-7 0-3.867187-3.132812-7-7-7-5.9375-.003906-11.839843.921876-17.492187 2.75-15.496094-26.351562-45.542969-40.527343-75.734375-35.726562-30.1875 4.800781-54.359375 27.597656-60.914062 57.457031-1.609376-.179687-3.230469-.269531-4.851563-.269531-18.652344.03125-35.386719 11.46875-42.183594 28.835938h-72.441406c-8.613281.019531-17.144531-1.683594-25.09375-5-3.570313-1.488282-7.667969.199218-9.15625 3.765624-1.488281 3.566407.195313 7.667969 3.761719 9.15625 9.660156 4.03125 20.023437 6.097657 30.488281 6.078126h69.417969c-.046875.828124-.125 1.644531-.125 2.484374.027344 25.027344 20.308594 45.308594 45.335937 45.335938h158.992188c28.019531-.046875 51.925781-20.289062 56.585937-47.917969.328125.054688.65625.089844.984375.097657 31.015625.015624 57.230469-22.96875 61.269531-53.714844 4.042969-30.75-15.347656-59.726563-45.3125-67.722656.050782-1.039063.078126-2.046876.078126-3.039063-.054688-41.765625-33.90625-75.613281-75.675782-75.65625-14.703125-.054687-29.097656 4.238281-41.375 12.335937-26.300781-34.125-69.277344-50.964843-111.761718-43.789062-42.484376 7.171875-77.546876 37.191406-91.183594 78.058594-22.75-8.417969-48.109375-5.84375-68.703125 6.976562-7.609375-8.921875-8.621094-21.730468-2.503907-31.738281 6.117188-10.007813 17.976563-14.945313 29.390626-12.238281-.992188 6.683594-.617188 13.5 1.097656 20.03125.957031 2.816406 3.605468 4.707031 6.578125 4.699218 2.234375 0 4.335937-1.0625 5.660156-2.859374 1.324219-1.800782 1.710937-4.121094 1.046875-6.253907-3.300781-17.699219 4.085938-35.683593 18.875-45.953125 14.785156-10.265625 34.21875-10.90625 49.648438-1.632812 3.304687 1.855468 7.480468.75 9.429687-2.5s.960937-7.457032-2.230469-9.5c-15.253906-9.136719-33.773437-11.035156-50.566406-5.183594-16.792969 5.847656-30.125 18.84375-36.402344 35.480469-17.132812-3.984375-34.902344 3.359375-44.222656 18.277343-9.320312 14.921876-8.128906 34.113282 2.96875 47.761719-23.851562 21.222657-32.59375 54.710938-22.160156 84.882813 1.261718 3.652344 5.25 5.589844 8.902344 4.328125zm369.671875 8c1.792969 1.785156 4.410156 2.464843 6.847656 1.773437 2.433594-.6875 4.308594-2.636718 4.898437-5.097656.59375-2.460938-.1875-5.046875-2.042968-6.769531-4.695313-4.519531-10.128906-8.207031-16.066406-10.898438-3.519532-1.601562-7.667969-.046875-9.269532 3.472657-1.601562 3.519531-.042968 7.667968 3.476563 9.269531 4.484375 2.042969 8.589843 4.839843 12.136719 8.261719zm0 0" fill="url(#linear0)"/></svg>