<svg height="496pt" viewBox="0 0 496 496" width="496pt" xmlns="http://www.w3.org/2000/svg" xmlns:xlink="http://www.w3.org/1999/xlink"><linearGradient id="a" gradientTransform="matrix(8 0 0 -8 -8 504)" gradientUnits="userSpaceOnUse" x1="32" x2="32" y1="1" y2="63"><stop offset="0" stop-color="#9f2fff"/><stop offset="1" stop-color="#0bb1d3"/></linearGradient><path d="m430.71875 112.34375c-7.628906-50.0625-51.382812-88.34375-102.71875-88.34375-19.878906 0-38.910156 5.558594-55.511719 16.078125-24.96875-25.191406-59.273437-40.078125-96.488281-40.078125-74.992188 0-136 61.007812-136 136 0 8.214844.792969 16.367188 2.246094 24.375-23.757813 2.855469-42.246094 23.105469-42.246094 47.625 0 26.472656 21.527344 48 48 48h162.800781c6.605469 18.617188 24.34375 32 45.199219 32h128c20.953125 0 38.769531-13.511719 45.296875-32.273438 37.222656-2.726562 66.703125-33.816406 66.703125-71.726562 0-37.433594-28.71875-68.257812-65.28125-71.65625zm-46.71875 159.65625h-128c-17.648438 0-32-14.351562-32-32s14.351562-32 32-32c3.054688 0 6.304688.574219 9.929688 1.769531l6.992187 2.292969 2.871094-6.773438c7.535156-17.792968 24.886719-29.289062 44.207031-29.289062s36.671875 11.496094 44.214844 29.289062l2.875 6.773438 6.988281-2.292969c3.617187-1.195312 6.867187-1.769531 9.921875-1.769531 17.648438 0 32 14.351562 32 32s-14.351562 32-32 32zm47.96875-32.632812c-.34375-26.175782-21.710938-47.367188-47.96875-47.367188-2.65625 0-5.34375.257812-8.113281.785156-11.222657-20.121094-32.472657-32.785156-55.886719-32.785156s-44.664062 12.664062-55.886719 32.785156c-2.769531-.527344-5.457031-.785156-8.113281-.785156-26.472656 0-48 21.527344-48 48h-160c-17.648438 0-32-14.351562-32-32s14.351562-32 32-32 32 14.351562 32 32h16c0-22.785156-15.976562-41.871094-37.304688-46.753906-1.757812-8.253906-2.695312-16.710938-2.695312-25.246094 0-66.167969 53.832031-120 120-120 49.535156 0 93.34375 29.753906 111.601562 75.792969l14.871094-5.898438c-4.886718-12.320312-11.433594-23.558593-19.25-33.621093 13.519532-8.027344 28.824219-12.273438 44.777344-12.273438 42.734375 0 79.328125 31.328125 86.648438 72.671875-16.046876 2.0625-30.824219 9.359375-42.296876 21.167969l11.480469 11.152344c10.632813-10.960938 24.902344-16.992188 40.167969-16.992188 30.878906 0 56 25.121094 56 56 0 28.167969-20.929688 51.480469-48.03125 55.367188zm-415.96875 64.632812c0 8.824219 7.175781 16 16 16h152c22.054688 0 40 17.945312 40 40s-17.945312 40-40 40h-120c-8.824219 0-16 7.175781-16 16s7.175781 16 16 16h160c17.648438 0 32 14.351562 32 32s-14.351562 32-32 32h-40v-16h40c8.824219 0 16-7.175781 16-16s-7.175781-16-16-16h-160c-17.648438 0-32-14.351562-32-32s14.351562-32 32-32h120c13.230469 0 24-10.769531 24-24s-10.769531-24-24-24h-152c-17.648438 0-32-14.351562-32-32s14.351562-32 32-32h72v16h-72c-8.824219 0-16 7.175781-16 16zm16 176h136v16h-136zm-16 16h-16v-16h16zm176-208h-72v-16h72zm304 48c0 17.648438-14.351562 32-32 32h-104v-16h104c8.824219 0 16-7.175781 16-16s-7.175781-16-16-16h-216v-16h216c17.648438 0 32 14.351562 32 32zm-16 144h16v16h-16zm16-60c0 15.441406-12.558594 28-28 28h-100c-8.824219 0-16 7.175781-16 16s7.175781 16 16 16h96v16h-96c-17.648438 0-32-14.351562-32-32s14.351562-32 32-32h100c6.617188 0 12-5.382812 12-12s-5.382812-12-12-12h-220v-16h220c15.441406 0 28 12.558594 28 28zm-152-68v16h-16v-16zm0 0" fill="url(#a)"/></svg>