<svg height="463pt" viewBox="0 -33 463.43602 463" width="463pt" xmlns="http://www.w3.org/2000/svg" xmlns:xlink="http://www.w3.org/1999/xlink"><linearGradient id="linear0" gradientUnits="userSpaceOnUse" x1="122.65602" x2="339.52002" y1="18.846579" y2="394.470579"><stop offset="0" stop-color="#fe9001"/><stop offset="1" stop-color="#a11d5b"/></linearGradient><path d="m463.4375 151.0625c-.050781 42.964844-34.867188 77.78125-77.828125 77.828125h-324.855469c-30.46875.019531-56.234375-22.546875-60.230468-52.75-3.996094-30.207031 15.011718-58.695313 44.4375-66.601563-.042969-.980468-.070313-1.933593-.070313-2.878906-.015625-27.28125 14.914063-52.375 38.898437-65.378906 23.980469-13 53.15625-11.816406 76.007813 3.085938 4.90625-6.339844 10.457031-12.152344 16.566406-17.339844 2.949219-2.503906 7.367188-2.144532 9.867188.804687 2.503906 2.945313 2.144531 7.363281-.800781 9.867188-6.984376 5.933593-13.128907 12.78125-18.273438 20.363281-1.097656 1.617188-2.820312 2.703125-4.753906 2.992188-1.933594.289062-3.898438-.242188-5.421875-1.464844-10.671875-8.636719-23.996094-13.328125-37.722657-13.289063-17.363281-.117187-33.925781 7.300781-45.402343 20.328125-11.476563 13.03125-16.742188 30.398438-14.429688 47.605469.46875 3.757813-2.132812 7.210937-5.878906 7.789063-24.132813 3.730468-41.320313 25.421874-39.433594 49.769531 1.886719 24.347656 22.214844 43.132812 46.632813 43.097656h324.859375c22.921875.179687 44.183593-11.945313 55.695312-31.765625 11.515625-19.824219 11.515625-44.296875 0-64.121094-11.511719-19.820312-32.773437-31.945312-55.695312-31.765625-7.976563.027344-15.875 1.574219-23.269531 4.554688 2.6875 16.722656 1.691406 33.824219-2.910157 50.121093-1.265625 3.617188-5.203125 5.542969-8.835937 4.324219-3.628906-1.21875-5.609375-5.128906-4.4375-8.777343 4.230468-15.777344 4.753906-32.324219 1.527344-48.339844-10.691407-41.28125-46.277344-71.316406-88.769532-74.925782-3.851562-.324218-6.710937-3.710937-6.386718-7.5625.320312-3.851562 3.707031-6.7148432 7.5625-6.390624 45.515624 3.871093 84.382812 34.417968 98.894531 77.738281 8.523437-3.148438 17.539062-4.757813 26.625-4.746094 42.964843.042969 77.785156 34.863281 77.832031 77.828125zm-258.738281-127.035156c1.03125 0 2.046875-.230469 2.976562-.667969 6.261719-2.945313 12.8125-5.234375 19.546875-6.824219 3.667969-.96875 5.894532-4.679687 5.03125-8.371094-.867187-3.6875-4.515625-6.019531-8.230468-5.253906-7.6875 1.8125-15.164063 4.421875-22.3125 7.785156-2.964844 1.394532-4.5625 4.664063-3.84375 7.859376.714843 3.199218 3.550781 5.472656 6.828124 5.472656zm138.316406 309.472656c15.113281 0 27.363281 12.25 27.363281 27.363281s-12.25 27.363281-27.363281 27.363281-27.363281-12.25-27.363281-27.363281c.015625-15.105469 12.257812-27.347656 27.363281-27.363281zm-13.363281 27.363281c0 7.378907 5.984375 13.363281 13.363281 13.363281 7.382813 0 13.363281-5.984374 13.363281-13.363281 0-7.382812-5.980468-13.363281-13.363281-13.363281-7.375.007812-13.355469 5.984375-13.363281 13.363281zm-274.878906-62.800781c15.117187 0 27.367187 12.257812 27.363281 27.375-.007813 15.117188-12.269531 27.363281-27.386719 27.351562-15.117188-.011718-27.359375-12.277343-27.34375-27.394531.027344-15.101562 12.269531-27.335937 27.371094-27.347656zm0 14c-7.386719 0-13.371094 5.988281-13.367188 13.375.007812 7.382812 6.003906 13.363281 13.386719 13.351562 7.386719-.011718 13.359375-6.007812 13.34375-13.394531-.019531-7.371093-5.992188-13.335937-13.359375-13.347656zm95.339843 29.761719c2.371094-.007813 4.726563.4375 6.933594 1.300781 2.34375.976562 5.03125.609375 7.027344-.960938 1.992187-1.566406 2.984375-4.09375 2.585937-6.601562-.398437-2.503906-2.121094-4.601562-4.503906-5.476562-13.496094-5.289063-28.863281-1.164063-37.898438 10.171874-9.035156 11.339844-9.625 27.238282-1.457031 39.214844 8.167969 11.976563 23.1875 17.230469 37.039063 12.957032 13.851562-4.273438 23.300781-17.074219 23.304687-31.570313 0-3.867187-3.132812-7-7-7-3.867187 0-7 3.132813-7 7-.003906 10.511719-8.527343 19.03125-19.039062 19.03125s-19.035157-8.523437-19.035157-19.039063c.003907-10.511718 8.523438-19.03125 19.039063-19.03125zm192.34375-73.03125c-2.734375-2.730469-7.167969-2.730469-9.902343 0-2.734376 2.734375-2.734376 7.167969 0 9.902343 8.472656 8.46875 22.207031 8.46875 30.675781-.003906 8.472656-8.46875 8.472656-22.203125 0-30.675781-8.46875-8.46875-22.203125-8.472656-30.675781 0-2.734376 2.734375-2.734376 7.164063 0 9.898437 2.734374 2.734376 7.167968 2.734376 9.902343 0 3.003907-3.003906 7.878907-3.003906 10.882813 0 3.003906 3.007813 3.003906 7.878907 0 10.882813-3.003906 3.007813-7.878906 3.007813-10.882813 0zm-236.089843-23.035157c-3.019532-2.414062-7.421876-1.921874-9.835938 1.101563l-21.410156 26.820313c-1.625 1.945312-2.070313 4.621093-1.160156 6.988281.90625 2.367187 3.023437 4.058593 5.535156 4.421875 2.507812.363281 5.019531-.660156 6.558594-2.675782l21.414062-26.820312c2.414062-3.019531 1.921875-7.421875-1.101562-9.835938zm48.117187 21.277344c-3.023437-2.410156-7.425781-1.914062-9.839844 1.101563l-30.246093 37.890625c-2.410157 3.019531-1.917969 7.425781 1.105468 9.839844 3.023438 2.410156 7.425782 1.917968 9.839844-1.105469l30.246094-37.886719c2.40625-3.023438 1.914062-7.421875-1.105469-9.835938zm75.503906-13.03125c-3.023437-2.410156-7.425781-1.917968-9.839843 1.101563l-40.644532 50.925781c-2.414062 3.019531-1.917968 7.425781 1.105469 9.839844 3.019531 2.410156 7.425781 1.917968 9.839844-1.105469l40.648437-50.917969c2.410156-3.023437 1.914063-7.429687-1.109375-9.839844zm71.6875-8.25c-3.023437-2.40625-7.425781-1.914062-9.839843 1.105469l-75.46875 94.535156c-2.410157 3.023438-1.917969 7.425781 1.105468 9.839844 3.019532 2.414063 7.425782 1.917969 9.839844-1.105469l75.472656-94.535156c2.410156-3.023438 1.914063-7.425781-1.109375-9.839844zm25.34375 49.808594c-3.023437-2.410156-7.425781-1.914062-9.839843 1.105469l-71.917969 90.097656c-2.414063 3.023437-1.917969 7.429687 1.101562 9.839844 3.023438 2.414062 7.429688 1.917969 9.839844-1.101563l71.910156-90.109375c2.40625-3.015625 1.917969-7.414062-1.09375-9.828125zm53.265625 21.832031c2.128906.003907 4.144532-.964843 5.476563-2.632812l28.363281-35.535157c2.410156-3.023437 1.917969-7.425781-1.105469-9.839843-3.023437-2.414063-7.425781-1.917969-9.839843 1.105469l-28.363282 35.535156c-1.679687 2.101562-2.003906 4.976562-.839844 7.402344 1.167969 2.421874 3.617188 3.964843 6.308594 3.964843zm0 0" fill="url(#linear0)"/></svg>