<svg height="446pt" viewBox="-20 0 446 446.72152" width="446pt" xmlns="http://www.w3.org/2000/svg" xmlns:xlink="http://www.w3.org/1999/xlink"><linearGradient id="linear0" gradientUnits="userSpaceOnUse" x1="105.365696" x2="330.093696" y1="31.489516" y2="420.737516"><stop offset="0" stop-color="#fe9001"/><stop offset="1" stop-color="#a11d5b"/></linearGradient><path d="m161.464844 190.117188c1.085937 4.101562 2.296875 8.167968 3.601562 12.09375.839844 2.386718.324219 5.042968-1.347656 6.945312s-4.238281 2.753906-6.714844 2.222656c-2.476562-.527344-4.476562-2.351562-5.226562-4.769531-1.386719-4.191406-2.679688-8.53125-3.835938-12.902344-.992187-3.738281 1.230469-7.574219 4.964844-8.566406 3.738281-.996094 7.574219 1.226563 8.566406 4.964844zm34.25-178.960938c-32.519532 44.40625-46.570313 99.683594-39.199219 154.226562.527344 3.828126-2.144531 7.363282-5.976563 7.894532-3.828124.527344-7.363281-2.144532-7.894531-5.976563-2.480469-18.167969-2.714843-36.574219-.695312-54.800781l-24.054688 14.683594c-11.445312 6.988281-26.386719 3.375-33.375-8.066406-6.988281-11.445313-3.375-26.386719 8.070313-33.375l67.71875-41.347657c4.15625-9.359375 8.949218-18.421875 14.34375-27.125-63.113282 15.523438-115.535156 59.308594-142.046875 118.652344-26.515625 59.34375-24.160157 127.601563 6.382812 184.976563l45.417969-27.730469c11.445312-6.988281 26.390625-3.375 33.378906 8.070312 6.988282 11.445313 3.375 26.390625-8.070312 33.378907l-7.566406 4.617187c-3.296876 1.972656-7.566407.921875-9.570313-2.355469-2.003906-3.28125-.988281-7.5625 2.277344-9.59375l7.5625-4.617187c4.707031-3.011719 6.140625-9.234375 3.230469-14.007813-2.910157-4.769531-9.101563-6.34375-13.933594-3.539062l-45.738282 27.914062c3.644532 5.863282 7.539063 11.519532 11.675782 16.957032l16.546875-10.097657c3.296875-1.976562 7.566406-.925781 9.570312 2.355469 2.003907 3.28125.988281 7.5625-2.277343 9.589844l-14.867188 9.078125c7.980469 9.164062 16.746094 17.617187 26.195312 25.257812 13.421876-16.042969 36.121094-20.742187 54.808594-11.339843 18.6875 9.398437 28.449219 30.425781 23.566406 50.765624 1.421876.375 2.828126.800782 4.261719 1.140626 76.476563 18.476562 156.875-7.160157 208.535157-66.496094-32.007813 2.734375-64.230469-1.441406-94.488282-12.246094-2.953125 4.890625-7.035156 9.003906-11.898437 12-13.953125 8.566406-31.890625 6.863281-43.984375-4.175781-12.089844-11.039063-15.414063-28.75-8.152344-43.421875-20.65625-16.472656-38.253906-36.445313-52-59.007813-4.753906-7.792969-9.039062-15.863281-12.832031-24.167969-1.601563-3.519531-.046875-7.671874 3.472656-9.273437 3.515625-1.605469 7.667969-.050781 9.273437 3.46875 3.554688 7.792969 7.574219 15.367187 12.039063 22.679687 13.804687 22.664063 31.757813 42.527344 52.914063 58.542969.203124.109375.398437.230469.585937.355469.136719.105469.238281.230469.363281.339844 14.675782 10.964844 30.726563 19.957031 47.746094 26.746094.558594.058593 1.113281.183593 1.640625.375.59375.230468 1.148437.542968 1.652344.925781 34.660156 13.132812 72.171875 16.894531 108.75 10.902343 2.804687-.449218 5.601562.839844 7.082031 3.261719 1.480469 2.425781 1.347656 5.5-.332031 7.789063-42.300781 57.28125-109.210938 91.171875-180.417969 91.382812-17.941406-.015625-35.8125-2.164062-53.246094-6.402344-103.925781-25.1875-175.710937-120.117187-171.636718-226.976562 4.074218-106.855469 82.875-196.046875 188.417968-213.25 2.8125-.464844 5.625.820312 7.109375 3.25 1.488281 2.433594 1.355469 5.519531-.335937 7.8125zm80.476562 331.601562c-13.78125-5.933593-26.929687-13.246093-39.246094-21.816406-2.339843 6.46875-1.601562 13.652344 2 19.511719 6.574219 10.753906 20.613282 14.152344 31.375 7.601563 2.253907-1.398438 4.234376-3.191407 5.847657-5.292969zm-172.140625 51.785157c16.511719 11.554687 34.605469 20.667969 53.722657 27.054687 2.980468-13.835937-3.761719-27.933594-16.402344-34.300781-12.636719-6.363281-27.980469-3.386719-37.320313 7.246094zm40.597657-300.109375c1.851562-9.6875 4.324218-19.242188 7.410156-28.609375l-52.175782 31.867187c-4.847656 2.953125-6.375 9.28125-3.417968 14.125 2.957031 4.84375 9.28125 6.375 14.125 3.417969zm-63.140626 104.398437c3.265626-2.027343 4.28125-6.308593 2.277344-9.589843s-6.273437-4.332032-9.570312-2.355469c-12.792969 7.808593-19.621094 22.554687-17.300782 37.359375 2.320313 14.808594 13.332032 26.757812 27.898438 30.28125 2.875.695312 5.820312 1.046875 8.777344 1.050781 13.390625-.03125 25.722656-7.277344 32.261718-18.960937 6.539063-11.683594 6.273438-25.984376-.703124-37.414063-2.011719-3.300781-6.320313-4.34375-9.621094-2.332031-3.300782 2.015625-4.34375 6.320312-2.328125 9.621094 6.632812 10.867187 3.199219 25.054687-7.664063 31.6875-10.867187 6.632812-25.054687 3.203124-31.6875-7.664063-6.632812-10.867187-3.203125-25.050781 7.660156-31.6875zm207.757813-78.554687 14.761719-25.15625-12.359375-26.398438c-1.125-2.414062-.785157-5.257812.878906-7.339844 1.664063-2.078124 4.363281-3.03125 6.96875-2.460937l28.480469 6.261719 21.304687-19.914063c1.945313-1.820312 4.757813-2.378906 7.25-1.4375 2.496094.941407 4.238281 3.214844 4.5 5.867188l2.847657 29.027343 25.527343 14.105469c2.332031 1.289063 3.730469 3.792969 3.605469 6.453125s-1.75 5.019532-4.191406 6.089844l-26.726563 11.664062-5.535156 28.632813c-.503906 2.617187-2.449219 4.722656-5.019531 5.425781-2.570313.707032-5.316406-.109375-7.085938-2.105468l-19.363281-21.8125-28.945313 3.601562c-2.644531.328125-5.242187-.875-6.707031-3.101562-1.464843-2.226563-1.539062-5.089844-.191406-7.390626zm28.699219-21.242188-9.449219 16.09375 18.523437-2.296875c2.285157-.28125 4.5625.578125 6.089844 2.300781l12.402344 13.953126 3.542969-18.324219c.4375-2.261719 1.960937-4.164063 4.070312-5.085938l17.101563-7.46875-16.332032-9.03125c-2.015624-1.113281-3.355468-3.148437-3.582031-5.441406l-1.824219-18.578125-13.628906 12.746094c-1.683594 1.574218-4.035156 2.21875-6.285156 1.722656l-18.226562-4 7.898437 16.917969c.96875 2.082031.855469 4.507812-.304687 6.492187zm-46.03125 87.796875c-1.941406-1.828125-4.753906-2.394531-7.25-1.457031-2.5.933594-4.25 3.203125-4.515625 5.859375l-2.257813 22.105469-19.496094 10.671875c-2.335937 1.28125-3.746093 3.777343-3.632812 6.441406.113281 2.660156 1.730469 5.027344 4.167969 6.105469l23.695312 10.46875c3.507813 1.425781 7.511719-.191406 9.042969-3.65625 1.53125-3.460938.03125-7.515625-3.386719-9.144532l-10.71875-4.742187 10.28125-5.625c2.019531-1.109375 3.363281-3.140625 3.597657-5.429687l1.199218-11.660157 8.53125 8.035157c1.675782 1.582031 4.019532 2.238281 6.273438 1.753906l11.457031-2.472656-5.007813 10.59375c-.984374 2.085937-.882812 4.519531.277344 6.511718l5.886719 10.132813-11.625-1.492188c-2.285156-.292969-4.570313.558594-6.101563 2.277344l-17.277343 19.300781c-1.734375 1.851563-2.332031 4.5-1.558594 6.914063.773437 2.417969 2.796875 4.226562 5.285156 4.730469 2.484375.503906 5.050781-.382813 6.699219-2.308594l14.824219-16.5625 22.046875 2.824218c2.644531.34375 5.253906-.847656 6.730468-3.070312 1.472657-2.222656 1.554688-5.089844.210938-7.394531l-11.164062-19.203125 9.496093-20.089844c1.140625-2.410156.8125-5.257812-.84375-7.34375-1.65625-2.089844-4.355469-3.054688-6.960937-2.492188l-21.726563 4.660157zm0 0" fill="url(#linear0)"/></svg>