<svg height="496pt" viewBox="0 0 496 496" width="496pt" xmlns="http://www.w3.org/2000/svg" xmlns:xlink="http://www.w3.org/1999/xlink"><linearGradient id="a" gradientUnits="userSpaceOnUse" x1="248" x2="248" y1="496" y2="0"><stop offset="0" stop-color="#9f2fff"/><stop offset="1" stop-color="#0bb1d3"/></linearGradient><path d="m436.96875 290.878906c2.007812-8.773437 3.03125-17.78125 3.03125-26.878906 0-66.167969-53.832031-120-120-120-7.433594 0-14.726562.769531-21.855469 2.105469-19.550781-35.472657-57.390625-58.105469-98.144531-58.105469-61.761719 0-112 50.238281-112 112 0 19.585938 5.128906 38.640625 14.777344 55.496094-6.570313 9.839844-11.265625 21.023437-13.417969 33.121094-3.101563-.359376-6.214844-.617188-9.359375-.617188-44.113281 0-80 35.886719-80 80s35.886719 80 80 80h56c0 26.472656 21.527344 48 48 48h128c26.472656 0 48-21.527344 48-48h56c44.113281 0 80-35.886719 80-80 0-36.847656-25.078125-67.871094-59.03125-77.121094zm-332.96875-90.878906c0-52.9375 43.0625-96 96-96 33.542969 0 64.769531 17.894531 82.046875 46.238281-33.824219 11.386719-61.648437 37.5625-74.445313 71.738281-9.953124-3.855468-20.640624-5.976562-31.601562-5.976562-24.144531 0-46.207031 10-62.238281 26.089844-6.378907-13.042969-9.761719-27.386719-9.761719-42.089844zm208 280h-128c-17.648438 0-32-14.351562-32-32s14.351562-32 32-32c3.054688 0 6.304688.574219 9.929688 1.769531l6.992187 2.285157 2.863281-6.765626c7.542969-17.792968 24.894532-29.289062 44.214844-29.289062s36.671875 11.496094 44.207031 29.289062l2.863281 6.765626 6.992188-2.285157c3.632812-1.195312 6.882812-1.769531 9.9375-1.769531 17.648438 0 32 14.351562 32 32s-14.351562 32-32 32zm104-48h-58.800781c-6.605469-18.617188-24.34375-32-45.199219-32-2.65625 0-5.34375.257812-8.121094.792969-11.214844-20.128907-32.464844-32.792969-55.878906-32.792969s-44.664062 12.664062-55.878906 32.792969c-2.777344-.535157-5.464844-.792969-8.121094-.792969-20.855469 0-38.59375 13.382812-45.199219 32h-58.800781c-35.289062 0-64-28.710938-64-64s28.710938-64 64-64c14.824219 0 28.726562 4.910156 40.222656 14.214844l10.066406-12.4375c-7.546874-6.105469-16.152343-10.699219-25.289062-13.707032 5.734375-34.160156 35.734375-60.070312 71-60.070312 27.433594 0 52.878906 15.960938 64.832031 40.65625l14.40625-6.96875c-7.421875-15.328125-19.101562-27.878906-33.183593-36.542969 14.609374-40.984375 53.984374-69.144531 97.945312-69.144531 57.34375 0 104 46.65625 104 104 0 8.222656-.992188 16.351562-2.878906 24.257812-1.707032-.105468-3.394532-.257812-5.121094-.257812-44.113281 0-80 35.886719-80 80h16c0-35.289062 28.710938-64 64-64s64 28.710938 64 64-28.710938 64-64 64zm-208-360h-16v-72h16zm-49.59375 6.679688-14.78125 6.128906-15.304688-36.960938 14.785157-6.128906zm-110.558594 49.640624 36.953125 15.304688-6.128906 14.78125-36.953125-15.300781zm30.832032 113.273438 6.128906 14.78125-36.960938 15.304688-6.128906-14.785157zm193-193.746094-15.304688 36.953125-14.78125-6.128906 15.300781-36.953125zm-167.847657 67.304688-50.910156-50.921875 11.308594-11.308594 50.914062 50.910156zm-31.832031 92.847656h-72v-16h72zm212.847656-104.167969 50.914063-50.910156 11.308593 11.308594-50.910156 50.914062zm0 0" fill="url(#a)"/></svg>