<svg height="496pt" viewBox="0 0 496 496" width="496pt" xmlns="http://www.w3.org/2000/svg" xmlns:xlink="http://www.w3.org/1999/xlink"><linearGradient id="a" gradientUnits="userSpaceOnUse" x1="248" x2="248" y1="496" y2="0"><stop offset="0" stop-color="#9f2fff"/><stop offset="1" stop-color="#0bb1d3"/></linearGradient><path d="m447.519531 224.566406c.28125-2.847656.480469-5.703125.480469-8.566406 0-48.519531-39.480469-88-88-88-6.960938 0-13.726562.976562-20.3125 2.535156-6.449219-15.558594-19.542969-27.390625-35.742188-32.175781.039063-.800781.054688-1.574219.054688-2.359375 0-35.289062-28.710938-64-64-64-11.0625 0-21.480469 2.824219-30.566406 7.785156-16.195313-24.664062-43.53125-39.785156-73.433594-39.785156-48.519531 0-88 39.480469-88 88 0 2.863281.199219 5.71875.480469 8.566406-27.328125 3.699219-48.480469 27.113282-48.480469 55.433594 0 30.871094 25.128906 56 56 56h138.105469c-1.328125 5.128906-2.105469 10.464844-2.105469 16 0 .785156.015625 1.566406.054688 2.375-23.292969 6.960938-40.054688 28.800781-40.054688 53.625 0 30.871094 25.128906 56 56 56h232c30.871094 0 56-25.128906 56-56 0-28.320312-21.152344-51.734375-48.480469-55.433594zm-391.519531-32.566406c-22.054688 0-40-17.945312-40-40s17.945312-40 40-40 40 17.945312 40 40h16c0-27.960938-20.625-51.136719-47.441406-55.273438-.351563-2.894531-.558594-5.804687-.558594-8.726562 0-39.703125 32.296875-72 72-72 24.726562 0 47.296875 12.640625 60.488281 33.207031-12.566406 11.6875-20.488281 28.3125-20.488281 46.792969h16c0-26.472656 21.527344-48 48-48s48 21.527344 48 48c0 2.207031-.199219 4.566406-.632812 7.398438l-1.207032 7.914062 7.910156 1.199219c13.554688 2.074219 24.824219 10.847656 30.328126 23.015625-15.300782 6.761718-28.414063 17.914062-37.832032 32.257812-9.085937-4.960937-19.503906-7.785156-30.566406-7.785156-23.625 0-44.257812 12.902344-55.34375 32zm384 128h-232c-22.054688 0-40-17.945312-40-40 0-19.558594 14.585938-36.535156 33.929688-39.488281l7.910156-1.199219-1.207032-7.914062c-.433593-2.839844-.632812-5.191407-.632812-7.398438 0-26.472656 21.527344-48 48-48s48 21.527344 48 48h16c0-18.480469-7.921875-35.105469-20.488281-46.792969 13.191406-20.566406 35.761719-33.207031 60.488281-33.207031 39.703125 0 72 32.296875 72 72 0 2.921875-.207031 5.832031-.558594 8.726562-26.816406 4.136719-47.441406 27.3125-47.441406 55.273438h16c0-22.054688 17.945312-40 40-40s40 17.945312 40 40-17.945312 40-40 40zm-422.625-6.0625 14.625-14.625v20.6875h16v-20.6875l14.625 14.625 11.3125-11.3125-14.625-14.625h20.6875v-16h-20.6875l14.625-14.625-11.3125-11.3125-14.625 14.625v-20.6875h-16v20.6875l-14.625-14.625-11.3125 11.3125 14.625 14.625h-20.6875v16h20.6875l-14.625 14.625zm6.625-27.3125v-13.25l9.375-9.375h13.25l9.375 9.375v13.25l-9.375 9.375h-13.25zm177.9375 74.75-11.3125-11.3125-14.625 14.625v-20.6875h-16v20.6875l-14.625-14.625-11.3125 11.3125 14.625 14.625h-20.6875v16h20.6875l-14.625 14.625 11.3125 11.3125 14.625-14.625v20.6875h16v-20.6875l14.625 14.625 11.3125-11.3125-14.625-14.625h20.6875v-16h-20.6875zm-17.9375 16v13.25l-9.375 9.375h-13.25l-9.375-9.375v-13.25l9.375-9.375h13.25zm-94.0625 56-11.3125-11.3125-14.625 14.625v-20.6875h-16v20.6875l-14.625-14.625-11.3125 11.3125 14.625 14.625h-20.6875v16h20.6875l-14.625 14.625 11.3125 11.3125 14.625-14.625v20.6875h16v-20.6875l14.625 14.625 11.3125-11.3125-14.625-14.625h20.6875v-16h-20.6875zm-17.9375 16v13.25l-9.375 9.375h-13.25l-9.375-9.375v-13.25l9.375-9.375h13.25zm400-87.800781-18.214844 27.335937c-3.785156 5.683594-5.785156 12.28125-5.785156 19.089844 0 13.230469 10.769531 24 24 24s24-10.769531 24-24c0-6.808594-2-13.40625-5.785156-19.097656zm0 54.425781c-4.414062 0-8-3.585938-8-8 0-3.640625 1.070312-7.175781 3.097656-10.214844l4.902344-7.359375 4.902344 7.351563c2.027344 3.046875 3.097656 6.582031 3.097656 10.222656 0 4.414062-3.585938 8-8 8zm-64 9.574219-18.214844 27.335937c-3.785156 5.683594-5.785156 12.28125-5.785156 19.089844 0 13.230469 10.769531 24 24 24s24-10.769531 24-24c0-6.808594-2-13.40625-5.785156-19.097656zm0 54.425781c-4.414062 0-8-3.585938-8-8 0-3.640625 1.070312-7.175781 3.097656-10.214844l4.902344-7.359375 4.902344 7.351563c2.027344 3.046875 3.097656 6.582031 3.097656 10.222656 0 4.414062-3.585938 8-8 8zm-64-134.425781-18.214844 27.335937c-3.785156 5.683594-5.785156 12.28125-5.785156 19.089844 0 13.230469 10.769531 24 24 24s24-10.769531 24-24c0-6.808594-2-13.40625-5.785156-19.097656zm0 54.425781c-4.414062 0-8-3.585938-8-8 0-3.640625 1.070312-7.175781 3.097656-10.214844l4.902344-7.359375 4.902344 7.351563c2.027344 3.046875 3.097656 6.582031 3.097656 10.222656 0 4.414062-3.585938 8-8 8zm-80 25.574219-18.214844 27.335937c-3.785156 5.683594-5.785156 12.28125-5.785156 19.089844 0 13.230469 10.769531 24 24 24s24-10.769531 24-24c0-6.808594-2-13.40625-5.785156-19.097656zm0 54.425781c-4.414062 0-8-3.585938-8-8 0-3.640625 1.070312-7.175781 3.097656-10.214844l4.902344-7.359375 4.902344 7.351563c2.027344 3.046875 3.097656 6.582031 3.097656 10.222656 0 4.414062-3.585938 8-8 8zm0 0" fill="url(#a)"/></svg>