<svg height="512pt" viewBox="0 0 512 512" width="512pt" xmlns="http://www.w3.org/2000/svg" xmlns:xlink="http://www.w3.org/1999/xlink"><linearGradient id="a" gradientUnits="userSpaceOnUse" x1="0" x2="512" y1="256" y2="256"><stop offset="0" stop-color="#00f2fe"/><stop offset=".0208" stop-color="#03effe"/><stop offset=".2931" stop-color="#24d2fe"/><stop offset=".5538" stop-color="#3cbdfe"/><stop offset=".7956" stop-color="#4ab0fe"/><stop offset="1" stop-color="#4facfe"/></linearGradient><path d="m492 276h-20c-11.046875 0-20-8.953125-20-20s8.953125-20 20-20h20c11.046875 0 20 8.953125 20 20s-8.953125 20-20 20zm-216-216v-40c0-11.046875-8.953125-20-20-20s-20 8.953125-20 20v40c0 11.046875 8.953125 20 20 20s20-8.953125 20-20zm-216 196c0-11.046875-8.953125-20-20-20h-20c-11.046875 0-20 8.953125-20 20s8.953125 20 20 20h20c11.046875 0 20-8.953125 20-20zm216 236v-40c0-11.046875-8.953125-20-20-20s-20 8.953125-20 20v40c0 11.046875 8.953125 20 20 20s20-8.953125 20-20zm-170.207031-327.730469c5.757812-9.425781 2.78125-21.734375-6.644531-27.492187l-34.136719-20.847656c-9.425781-5.757813-21.734375-2.78125-27.492188 6.644531-5.757812 9.429687-2.78125 21.738281 6.644531 27.492187l34.136719 20.847656c3.253907 1.988282 6.851563 2.9375 10.40625 2.9375 6.738281 0 13.316407-3.40625 17.085938-9.582031zm368.6875 225.15625c5.757812-9.429687 2.78125-21.738281-6.644531-27.492187l-34.140626-20.847656c-9.425781-5.761719-21.734374-2.785157-27.492187 6.644531-5.757813 9.425781-2.78125 21.734375 6.648437 27.492187l34.136719 20.847656c3.253907 1.988282 6.851563 2.933594 10.40625 2.933594 6.738281 0 13.316407-3.40625 17.085938-9.578125zm-90.355469 88.203125c9.5625-5.527344 12.835938-17.761718 7.304688-27.324218l-10.007813-17.3125c-5.527344-9.5625-17.765625-12.835938-27.324219-7.304688-9.5625 5.527344-12.832031 17.761719-7.304687 27.324219l10.007812 17.3125c3.707031 6.410156 10.425781 9.992187 17.335938 9.992187 3.394531 0 6.839843-.867187 9.988281-2.6875zm1.707031-395.40625 10.441407-17.058594c5.769531-9.421874 2.808593-21.734374-6.613282-27.5-9.421875-5.769531-21.730468-2.804687-27.5 6.613282l-10.441406 17.058594c-5.769531 9.421874-2.808594 21.730468 6.613281 27.5 3.261719 1.996093 6.863281 2.945312 10.425781 2.945312 6.730469 0 13.304688-3.398438 17.074219-9.558594zm-227.84375 4.042969c9.566407-5.523437 12.84375-17.753906 7.320313-27.320313l-10.003906-17.320312c-5.523438-9.5625-17.75-12.839844-27.320313-7.316406-9.5625 5.519531-12.84375 17.753906-7.320313 27.320312l10.003907 17.320313c3.703125 6.414062 10.425781 10 17.339843 10 3.390626 0 6.832032-.863281 9.980469-2.683594zm-8.5625 381.246094 10.476563-17.035157c5.785156-9.410156 2.847656-21.730468-6.5625-27.511718-9.410156-5.785156-21.726563-2.851563-27.515625 6.558594l-10.472657 17.039062c-5.785156 9.410156-2.847656 21.726562 6.558594 27.511719 3.269532 2.011719 6.886719 2.964843 10.457032 2.964843 6.71875 0 13.28125-3.382812 17.058593-9.527343zm285.917969-293.070313 34.542969-20.171875c9.539062-5.570312 12.757812-17.816406 7.1875-27.355469-5.570313-9.539062-17.816407-12.757812-27.355469-7.1875l-34.542969 20.171876c-9.539062 5.570312-12.757812 17.816406-7.1875 27.355468 3.71875 6.367188 10.410157 9.917969 17.289063 9.917969 3.425781 0 6.894531-.878906 10.066406-2.730469zm-373.0625 217.828125 34.542969-20.167969c9.539062-5.570312 12.757812-17.816406 7.1875-27.355468-5.570313-9.539063-17.816407-12.757813-27.355469-7.1875l-34.542969 20.167968c-9.539062 5.570313-12.753906 17.820313-7.1875 27.359376 3.71875 6.367187 10.414063 9.917968 17.292969 9.917968 3.421875 0 6.894531-.882812 10.0625-2.734375zm249.644531 9.402344c10.3125-3.960937 15.460938-15.53125 11.5-25.84375-3.960937-10.308594-15.53125-15.460937-25.84375-11.5-13.25 5.089844-27.238281 7.671875-41.582031 7.671875-63.964844 0-116-52.035156-116-116s52.035156-116 116-116 116 52.035156 116 116c0 16.007812-3.195312 31.503906-9.496094 46.050781-4.390625 10.136719.269532 21.914063 10.40625 26.300781 10.136719 4.394532 21.910156-.265624 26.300782-10.402343 8.484374-19.597657 12.789062-40.4375 12.789062-61.949219 0-86.019531-69.980469-156-156-156s-156 69.980469-156 156 69.980469 156 156 156c19.265625 0 38.078125-3.476562 55.925781-10.328125zm-5.925781-120.738281c0-11.046875-8.953125-20-20-20s-20 8.953125-20 20c0 5.511718-4.484375 10-10 10s-10-4.488282-10-10c0-11.046875-8.953125-20-20-20s-20 8.953125-20 20c0 27.570312 22.429688 50 50 50s50-22.429688 50-50zm-5-45.933594c11.046875 0 20-8.953125 20-20s-8.953125-20-20-20-20 8.953125-20 20 8.953125 20 20 20zm-90 0c11.046875 0 20-8.953125 20-20s-8.953125-20-20-20-20 8.953125-20 20 8.953125 20 20 20zm0 0" fill="url(#a)"/></svg>