<svg height="478pt" viewBox="0 -34 478.85246 478" width="478pt" xmlns="http://www.w3.org/2000/svg" xmlns:xlink="http://www.w3.org/1999/xlink"><linearGradient id="linear0" gradientUnits="userSpaceOnUse" x1="112.145586" x2="325.033586" y1="46.777048" y2="415.505048"><stop offset="0" stop-color="#fe9001"/><stop offset="1" stop-color="#a11d5b"/></linearGradient><path d="m305.386719 33.863281c2.761719 2.710938 2.804687 7.140625.097656 9.902344s-7.140625 2.808594-9.902344.097656c-2.105469-2.0625-4.3125-4.054687-6.570312-5.917969-2.980469-2.464843-3.402344-6.878906-.9375-9.859374 2.460937-2.984376 6.878906-3.402344 9.859375-.941407 2.5625 2.101563 5.070312 4.359375 7.453125 6.71875zm127.597656 78.375c.054687-1.039062.078125-2.042969.078125-3.042969-.039062-41.773437-33.882812-75.632812-75.65625-75.6875-17.21875-.054687-33.925781 5.832032-47.308594 16.660157-2.957031 2.4375-3.402344 6.796875-1.003906 9.785156 2.398438 2.984375 6.75 3.492187 9.769531 1.132813 10.902344-8.828126 24.515625-13.625 38.542969-13.582032 17.738281-.117187 34.660156 7.457032 46.382812 20.769532 11.726563 13.316406 17.105469 31.058593 14.746094 48.640624-.476562 3.757813 2.128906 7.210938 5.875 7.789063 24.679688 3.816406 42.253906 26 40.320313 50.898437-1.933594 24.898438-22.726563 44.101563-47.699219 44.054688h-87.292969c-3.867187 0-7 3.136719-7 7 0 3.867188 3.132813 7 7 7h87.292969c31.019531.03125 57.253906-22.953125 61.296875-53.714844 4.039063-30.757812-15.363281-59.742187-45.34375-67.722656zm-128.53125 107.417969h-42.929687c-3.867188 0-7 3.136719-7 7 0 3.867188 3.132812 7 7 7h4.515624l-120.265624 79.179688 46.140624-57.863282c1.675782-2.101562 2-4.976562.832032-7.402344-1.164063-2.421874-3.617188-3.960937-6.304688-3.960937h-50.984375l63.574219-79.714844h58.480469l-46.5625 58.402344c-1.675781 2.101563-2 4.980469-.832031 7.402344 1.164062 2.421875 3.617187 3.960937 6.304687 3.960937h21.808594c3.863281 0 7-3.132812 7-7 0-3.863281-3.136719-7-7-7h-7.273438l46.570313-58.398437c1.675781-2.101563 2-4.980469.832031-7.402344s-3.617187-3.960937-6.304687-3.960937h-76.402344c-2.128906 0-4.144532.96875-5.472656 2.632812l-53.550782 67.125h-50.800781c-36.007813 0-65.199219-29.191406-65.199219-65.199219 0-36.007812 29.191406-65.199219 65.199219-65.199219 8.1875.023438 16.289063 1.613282 23.878906 4.683594-2.742187 17.054688-1.726562 34.503906 2.972657 51.125 1.265624 3.613282 5.203124 5.539063 8.835937 4.320313 3.628906-1.214844 5.609375-5.125 4.4375-8.773438-4.367187-16.109375-4.902344-33.023437-1.558594-49.375 7.898438-30.390625 29.273438-55.488281 58.011719-68.128906 28.742188-12.640625 61.6875-11.429687 89.421875 3.289063 3.414063 1.816406 7.652344.523437 9.472656-2.886719 1.816407-3.414063.523438-7.652344-2.886719-9.46875-30.296874-16.082031-66.132812-18.015625-97.980468-5.285157-31.847656 12.726563-56.480469 38.828126-67.347656 71.359376-8.714844-3.234376-17.933594-4.886719-27.226563-4.875-43.742187 0-79.203125 35.457031-79.203125 79.199218 0 43.742188 35.460938 79.199219 79.203125 79.199219h39.621094l-10.050781 12.605469c-1.675782 2.101562-2 4.976562-.832032 7.398437 1.164063 2.421875 3.617188 3.964844 6.304688 3.964844h51.003906l-64.519531 80.914063c-2.140625 2.691406-2.007813 6.539062.308593 9.078124 2.320313 2.535157 6.136719 3.015626 9.011719 1.132813l174.796875-115.078125h12.957032c3.867187 0 7-3.132812 7-7 0-3.863281-3.132813-7-7-7zm54.484375 32.515625h-48.945312c-2.128907 0-4.144532.972656-5.46875 2.636719l-7.351563 9.199218c-2.410156 3.023438-1.914063 7.429688 1.109375 9.839844 3.019531 2.410156 7.425781 1.914063 9.835938-1.105468l5.25-6.578126h31.039062l-26.578125 33.335938c-1.675781 2.101562-2 4.980469-.832031 7.402344 1.167968 2.421875 3.617187 3.960937 6.304687 3.960937h23.398438l-56.828125 37.402344 19.695312-24.703125c1.675782-2.105469 2-4.980469.832032-7.402344-1.164063-2.421875-3.617188-3.960937-6.304688-3.964844h-27.4375l13.574219-17.015624c1.605469-1.949219 2.039062-4.613282 1.128906-6.972657-.914063-2.359375-3.023437-4.042969-5.523437-4.40625-2.503907-.363281-5.007813.652344-6.550782 2.652344l-22.636718 28.398437c-1.675782 2.105469-2 4.980469-.832032 7.402344 1.164063 2.421875 3.617188 3.960938 6.304688 3.964844h27.4375l-38.082032 47.75c-2.136718 2.691406-2.003906 6.535156.3125 9.074219 2.316407 2.539062 6.132813 3.019531 9.007813 1.132812l113.105469-74.457031c2.582031-1.703125 3.746094-4.894531 2.859375-7.859375-.890625-2.960937-3.617188-4.992187-6.707031-4.992187h-32.226563l26.582031-33.324219c1.675782-2.105469 2-4.980469.832032-7.402344-1.164063-2.421875-3.617188-3.964844-6.304688-3.964844zm-346.460938 95.082031 18.175782-22.769531c2.414062-3.019531 1.917968-7.425781-1.101563-9.839844-3.023437-2.410156-7.429687-1.917969-9.839843 1.105469l-18.179688 22.769531c-2.414062 3.023438-1.917969 7.429688 1.101562 9.839844 3.023438 2.414063 7.429688 1.917969 9.839844-1.101563zm69.472657-98.257812c-3.023438-2.410156-7.425781-1.914063-9.839844 1.105468l-34.179687 42.800782c-2.414063 3.019531-1.917969 7.425781 1.105468 9.839844 3.019532 2.410156 7.425782 1.917968 9.839844-1.105469l34.179688-42.800781c2.410156-3.019532 1.914062-7.425782-1.105469-9.839844zm-64.734375 159.175781c3.019531 2.414063 7.425781 1.917969 9.839844-1.101563l21.820312-27.335937c2.410156-3.023437 1.917969-7.429687-1.105469-9.839844-3.023437-2.414062-7.425781-1.917969-9.839843 1.101563l-21.820313 27.335937c-2.410156 3.023438-1.917969 7.429688 1.105469 9.839844zm63.015625-78.960937c-3.023438-2.414063-7.429688-1.917969-9.839844 1.101562l-15.359375 19.277344c-2.414062 3.019531-1.917969 7.425781 1.101562 9.839844 3.023438 2.410156 7.429688 1.917968 9.839844-1.105469l15.375-19.257813c1.164063-1.457031 1.699219-3.3125 1.488282-5.160156-.210938-1.851562-1.148438-3.539062-2.605469-4.695312zm13.0625-9.347657c2.132812.003907 4.148437-.964843 5.476562-2.628906l29.519531-36.980469c2.414063-3.023437 1.917969-7.429687-1.101562-9.839844-3.023438-2.414062-7.429688-1.917968-9.84375 1.101563l-29.515625 36.972656c-1.679687 2.101563-2.011719 4.980469-.84375 7.40625 1.164063 2.425781 3.617187 3.96875 6.308594 3.96875zm-13.75 88.316407c3.019531 2.414062 7.425781 1.917968 9.839843-1.101563l28.949219-36.273437c2.414063-3.023438 1.917969-7.425782-1.101562-9.839844-3.023438-2.414063-7.429688-1.917969-9.839844 1.105468l-28.953125 36.269532c-2.40625 3.019531-1.914062 7.417968 1.101562 9.832031zm66.6875 1.53125c2.128906 0 4.144531-.96875 5.476562-2.632813l38.921875-48.757813c2.414063-3.019531 1.917969-7.425781-1.101562-9.839843-3.023438-2.410157-7.429688-1.917969-9.839844 1.105469l-38.914062 48.746093c-1.679688 2.101563-2.003907 4.980469-.839844 7.402344 1.167968 2.425781 3.617187 3.964844 6.308594 3.964844zm96.347656-127.707032c-3.019531-2.410156-7.425781-1.917968-9.835937 1.105469l-32.800782 41.109375c-1.625 1.945312-2.066406 4.621094-1.160156 6.988281.910156 2.367188 3.027344 4.058594 5.535156 4.421875 2.511719.363282 5.019532-.660156 6.5625-2.675781l32.820313-41.109375c2.40625-3.027344 1.902343-7.429688-1.121094-9.839844zm-38.402344 126.167969c3.023438 2.414063 7.429688 1.917969 9.84375-1.101563l45.199219-56.644531c2.410156-3.023437 1.917969-7.429687-1.105469-9.839843-3.023437-2.414063-7.425781-1.917969-9.839843 1.101562l-45.199219 56.644531c-2.410157 3.027344-1.910157 7.429688 1.113281 9.839844zm66.695313 1.527344c2.128906.003906 4.144531-.964844 5.472656-2.632813l7.148438-8.960937c2.414062-3.023438 1.917968-7.425781-1.105469-9.839844-3.019531-2.410156-7.425781-1.914063-9.835938 1.109375l-7.148437 8.957031c-1.675782 2.101563-2 4.976563-.835938 7.398438 1.164063 2.421875 3.617188 3.964843 6.304688 3.964843zm122.691406-160.703125c-3.023438-2.40625-7.425781-1.914063-9.839844 1.105468l-22.21875 27.832032c-2.410156 3.023437-1.910156 7.433594 1.113282 9.84375 3.027343 2.410156 7.433593 1.914062 9.84375-1.113282l22.214843-27.832031c2.410157-3.023437 1.914063-7.421875-1.105469-9.835937zm-60.359375 160.703125c2.128906.003906 4.144531-.964844 5.472656-2.628907l27.152344-34.003906c2.414063-3.023437 1.917969-7.429687-1.101563-9.839844-3.023437-2.414062-7.429687-1.917968-9.839843 1.101563l-27.152344 34c-1.679687 2.101563-2.003906 4.980469-.839844 7.402344 1.167969 2.425781 3.617188 3.964843 6.308594 3.964843zm53.972656-74.632813c-3.019531-2.414062-7.425781-1.917968-9.839843 1.101563l-7.507813 9.429687c-2.410156 3.023438-1.917969 7.425782 1.105469 9.839844 3.023437 2.410156 7.425781 1.917969 9.839844-1.105469l7.511718-9.410156c1.164063-1.453125 1.699219-3.308594 1.492188-5.160156-.207032-1.847657-1.144532-3.539063-2.601563-4.695313zm9.726563-12.179687c3.023437 2.410156 7.425781 1.914062 9.839844-1.105469l33.171874-41.554688c2.410157-3.023437 1.917969-7.429687-1.105468-9.839843-3.019532-2.414063-7.425782-1.917969-9.839844 1.101562l-33.171875 41.578125c-2.410156 3.019532-1.917969 7.425782 1.105469 9.839844zm0 0" fill="url(#linear0)"/></svg>