<svg height="458pt" viewBox="-10 0 458 458.00624" width="458pt" xmlns="http://www.w3.org/2000/svg" xmlns:xlink="http://www.w3.org/1999/xlink"><linearGradient id="linear0" gradientUnits="userSpaceOnUse" x1="121.15512" x2="361.17112" y1="-12.332" y2="403.388"><stop offset="0" stop-color="#fe9001"/><stop offset="1" stop-color="#a11d5b"/></linearGradient><path d="m144.628906 259.84375c-2.242187-1.207031-3.652344-3.539062-3.679687-6.085938-.03125-2.546874 1.328125-4.90625 3.542969-6.164062 2.214843-1.257812 4.9375-1.210938 7.109374.117188 3.90625 2.25 7.765626 4.621093 11.476563 7.054687 3.234375 2.117187 4.140625 6.457031 2.019531 9.691406-2.117187 3.234375-6.457031 4.136719-9.691406 2.019531-3.480469-2.289062-7.109375-4.519531-10.777344-6.632812zm247.875 7.53125c1.316406 13.691406.410156 27.503906-2.683594 40.90625-.722656 3.175781-3.542968 5.433594-6.800781 5.445312-.527343.003907-1.046875-.058593-1.558593-.175781-3.773438-.855469-6.132813-4.609375-5.269532-8.378906 2.386719-10.308594 3.339844-20.898437 2.839844-31.46875-34.046875 14.289063-69.46875 25.050781-105.707031 32.113281-17.738281 3.625-35.199219 6.398438-51.9375 8.375 13.109375 22.480469 18.367187 48.683594 14.945312 74.480469 8.1875 2.324219 16.519531 4.09375 24.945313 5.289063 3.828125.574218 6.464844 4.140624 5.890625 7.964843-.570313 3.828125-4.136719 6.464844-7.964844 5.890625-8.589844-1.226562-17.09375-2.980468-25.46875-5.253906-3.359375 13.542969-8.429687 26.601562-15.082031 38.863281 26.824218-5.671875 52.46875-15.929687 75.804687-30.320312-3.601562-.164063-7.300781-.375-11.132812-.65625-3.804688-.347657-6.625-3.679688-6.34375-7.484375.28125-3.808594 3.558593-6.691406 7.371093-6.476563 11.003907.800781 20.867188 1.085938 29.78125.871094 24.652344-18.769531 43.90625-43.722656 55.8125-72.328125 1.425782-3.59375 5.496094-5.351562 9.089844-3.925781 3.59375 1.421875 5.351563 5.492187 3.929688 9.085937-9.914063 24.496094-24.96875 46.582032-44.148438 64.765625 19.734375-3.792969 32.042969-12 38.714844-25.269531 1.738281-3.453125 5.945312-4.84375 9.398438-3.109375 3.457031 1.738281 4.847656 5.949219 3.109374 9.402344-11.148437 22.15625-32.867187 33.304687-70.148437 35.148437-33.453125 24.851563-72.59375 40.9375-113.855469 46.800782-2.707031.40625-5.398437-.800782-6.898437-3.089844-1.5-2.285156-1.527344-5.238282-.074219-7.554688 9.824219-15.109375 17.046875-31.757812 21.363281-49.257812-14.75-6.078125-23.359375-14.046875-25.597656-23.867188-.578125-2.449218.203125-5.015625 2.042969-6.730468 1.839844-1.710938 4.457031-2.304688 6.859375-1.554688 2.398437.75 4.210937 2.730469 4.75 5.183594.882812 3.890625 5.289062 8.429687 14.320312 12.65625 2.460938-23.886719-3.421875-47.890625-16.652343-67.929688-13.238282 1.171875-25.894532 1.78125-37.6875 1.78125-6.171876 0-12.097657-.164062-17.773438-.496094-37.800781-2.210937-58.59375-11.296874-61.804688-27.011718-.71875-3.761719 1.722657-7.402344 5.476563-8.171875 3.753906-.765625 7.425781 1.628906 8.238281 5.375 1.242188 6.058593 14.800782 13.839843 48.910156 15.835937 14.988282.753906 30.011719.550782 44.976563-.601562-6.082031-7.304688-12.769531-14.074219-20-20.238282-2.867187-2.535156-3.167969-6.902343-.675781-9.804687 2.492187-2.90625 6.855468-3.269531 9.792968-.816406 10.214844 8.710937 19.375 18.582031 27.300782 29.410156 18.402344-1.917969 37.796875-4.878906 57.601562-8.929687 36.660156-7.117188 72.4375-18.207032 106.699219-33.070313-1.007813-5.175781-2.445313-10.257813-4.292969-15.199219-7.570312-18.3125-10.210937-38.289062-7.660156-57.941406-34.6875 8.640625-81.230469 13.453125-136.5 13.453125-61.65625 0-125.429688-6.71875-169.929688-19.597656 15.949219 26.171875 41.027344 39.738281 70.25 55.503906l4.800782 2.589844c3.402344 1.84375 4.664062 6.089843 2.824218 9.492187-1.839843 3.402344-6.089843 4.664063-9.492187 2.824219l-4.800781-2.582031c-34-18.355469-65.277344-35.230469-82.355469-74.089844-24.707031-9.527344-40.04296875-21.59375-40.04296875-36.085938 0-3.863281 3.13281275-7 6.99999975-7 3.863282 0 7 3.136719 7 7 0 5.785157 6.863282 12.230469 19.785156 18.46875-7.101562-24.988281-9.453124-57.5625-5.097656-101.738281 0-.085937.035156-.160156.046875-.242187 1.738281-35.386719 101.433594-53.902344 200-53.902344 99.421875 0 200.066407 18.832031 200.066407 54.832031-.007813 1.265625-.144532 2.527344-.402344 3.769531-3.742188 32.4375-16.800782 56.332032-28.304688 77.410157-5.289062 9.257812-10.0625 18.804687-14.285156 28.597656 22.726562-8.664063 33.597656-18.671875 33.597656-27.203125 0-3.863281 3.136719-7 7-7 3.867188 0 7 3.136719 7 7 0 18.328125-19.113281 33.488281-53.054687 44.226562-3.628907 16.230469-2.996094 34.332032 5.640625 57.253907 1.675781 4.523437 3.050781 9.15625 4.113281 13.859375 16.988281-8.84375 28.230469-17.40625 32.140625-24.398438 1.890625-3.371094 1.28125-5.039062 1.082031-5.601562-4.523437-12.457032-26.765625-11.433594-26.992187-11.414063-3.832032.199219-7.109375-2.726562-7.347656-6.554687-.238282-3.828125 2.648437-7.136719 6.476562-7.417969 1.339844-.078125 32.886719-1.789063 41.019531 20.609375 1.945313 5.746094 1.203125 12.0625-2.023437 17.199219-5.832032 10.476562-20.746094 21.59375-41.964844 32.207031zm-349.828125-212.527344c0 5.148438 6.5 10.914063 18.691407 16.449219 17.921874-6.800781 36.5-11.71875 55.4375-14.679687 2.472656-.457032 5.003906.449218 6.625 2.375 1.621093 1.929687 2.082031 4.578124 1.207031 6.9375-.875 2.363281-2.949219 4.070312-5.433594 4.476562-12.480469 2.105469-24.828125 4.929688-36.984375 8.460938 32.0625 9.464843 82.398438 16.824218 146.507812 16.824218 64.109376 0 114.402344-7.355468 146.476563-16.800781-35.601563-10.632813-89.3125-17.015625-146.476563-17.015625-10.800781 0-21.597656.226562-32.089843.664062-3.867188.164063-7.132813-2.839843-7.292969-6.707031-.160156-3.867187 2.839844-7.128906 6.707031-7.292969 10.699219-.445312 21.695313-.675781 32.675781-.675781 68.988282 0 131.148438 8.757813 167.359376 23.457031 10.902343-4.949218 17.257812-10.078124 18.480468-14.800781 0-.046875.023438-.089843.03125-.140625.125-.5.191406-1.011718.199219-1.527344.007813-17.035156-70.792969-40.835937-186.0625-40.835937-115.265625 0-186.058594 23.800781-186.058594 40.832031zm326.234375 115.308594c4.925782-14.207031 11.253906-27.886719 18.890625-40.839844 9.296875-15.699218 16.75-32.421875 22.203125-49.832031-33.695312 19.894531-107.789062 30.195313-181.261718 30.195313-78.527344 0-157.773438-11.757813-187.632813-34.441407-2.246094 38.75 1.351563 66.46875 9.363281 87.40625 36.183594 12.5 97.808594 22.714844 178.269532 22.714844 62.707031 0 108.929687-6.378906 140.167968-15.203125zm-222.105468-103.800781c.265624 0 .53125-.015625.796874-.046875 8-.929688 16.308594-1.730469 24.753907-2.371094 3.855469-.296875 6.742187-3.660156 6.445312-7.515625-.292969-3.855469-3.660156-6.742187-7.511719-6.445313-8.628906.660157-17.144531 1.476563-25.304687 2.421876-3.679687.433593-6.382813 3.65625-6.171875 7.355468.210938 3.695313 3.265625 6.589844 6.96875 6.597656zm188.796874-17.242188c9.886719 1.683594 19.808594 3.574219 29.5 5.617188.480469.101562.964844.152343 1.453126.152343 3.589843.003907 6.597656-2.707031 6.96875-6.277343.367187-3.570313-2.019532-6.839844-5.53125-7.574219-9.867188-2.082031-19.976563-4-30.035157-5.722656-3.789062-.597656-7.351562 1.957031-7.996093 5.738281-.644532 3.777344 1.871093 7.371094 5.640624 8.0625zm21.414063 73.476563c-50.996094 14.890625-122.574219 13.707031-123.273437 13.699218-1.859376-.058593-3.667969.636719-5.011719 1.929688-1.339844 1.292969-2.105469 3.070312-2.121094 4.933594-.070313 3.863281 3 7.058594 6.867187 7.132812.445313 0 2.398438.042969 5.566407.042969 18.210937 0 76.691406-1.101563 121.902343-14.304687 3.640626-1.140626 5.695313-4.980469 4.625-8.640626-1.066406-3.660156-4.867187-5.792968-8.546874-4.792968zm-159.886719 12.027344c-17.835937-2-30.070312-4.117188-30.191406-4.136719-3.789062-.632813-7.378906 1.910156-8.042969 5.691406-.667969 3.785156 1.84375 7.398437 5.621094 8.097656.511719.085938 12.75 2.230469 31.070313 4.257813 3.84375.425781 7.304687-2.34375 7.730468-6.183594.425782-3.84375-2.34375-7.304688-6.183594-7.730469zm138.421875 177.335937c-.246093.136719-25.433593 13.789063-81.496093 18.238281-3.753907.285156-6.613282 3.492188-6.464844 7.253906.148437 3.765626 3.246094 6.738282 7.011718 6.726563.1875 0 .375 0 .566407-.019531 59.578125-4.726563 86.140625-19.367188 87.238281-20 3.335938-1.910156 4.507812-6.148438 2.625-9.5-1.878906-3.351563-6.109375-4.558594-9.476562-2.707032zm-98.117187-42.308594 6.082031-6.082031-.757813-4.050781c-1.847656-9.925781.453126-20.171875 6.367188-28.355469 5.917969-8.183594 14.925781-13.582031 24.929688-14.941406l21.792968-2.957032c2.164063-.296874 4.34375.441407 5.886719 1.984376 1.546875 1.546874 2.28125 3.722656 1.988281 5.890624l-2.960937 21.792969c-2.480469 18.238281-18.023438 31.863281-36.429688 31.933594-2.304687 0-4.605469-.214844-6.867187-.640625l-4.054688-.753906-6.078125 6.078125c-2.734375 2.734375-7.167969 2.734375-9.902343 0-2.730469-2.734375-2.730469-7.164063 0-9.898438zm18.800781-18.800781 5.199219-5.199219c2.734375-2.734375 7.167968-2.734375 9.902344 0 2.734374 2.734375 2.734374 7.164063 0 9.898438l-5.199219 5.199219c10.691406-.875 19.335937-9.074219 20.769531-19.710938l1.722656-12.675781-12.679687 1.71875c-10.628907 1.441406-18.832031 10.082031-19.710938 20.773437zm-87.03125 149.628906c-.886719 1.632813-2.386719 2.84375-4.167969 3.371094-1.785156.523438-3.703125.320312-5.332031-.570312l-7.546875-4.117188-3.675781 1.867188c-9.003907 4.574218-19.488281 5.253906-29.003907 1.886718-9.519531-3.367187-17.242187-10.488281-21.367187-19.707031l-8.980469-20.074219c-.894531-1.996094-.804687-4.292968.242188-6.214844 1.046875-1.917968 2.929687-3.238281 5.09375-3.566406l21.742187-3.308594c9.980469-1.515624 20.148438 1.125 28.132813 7.308594 7.980468 6.183594 13.078125 15.367188 14.101562 25.414063l.402344 4.097656 7.546875 4.121094c3.398437 1.84375 4.65625 6.09375 2.8125 9.492187zm-32.828125-9.941406-6.4375-3.511719c-3.363281-1.863281-4.59375-6.097656-2.75-9.476562 1.84375-3.378907 6.070312-4.632813 9.460938-2.8125l6.433593 3.511719c-3.859375-10.007813-14.160156-15.984376-24.765625-14.367188l-12.652344 1.925781 5.226563 11.675781c4.375 9.792969 14.976563 15.226563 25.484375 13.054688zm-82.074219-126.175781c-5.957031 1.960937-12.457031 1.367187-17.957031-1.644531-2.207031-1.273438-4.929688-1.25-7.113281.0625-2.179688 1.3125-3.480469 3.707031-3.386719 6.25.09375 2.546874 1.558594 4.839843 3.832031 5.992187 5.367188 2.929687 11.382813 4.46875 17.496094 4.476563 3.886719-.003907 7.746094-.621094 11.441406-1.828126 9.625-3.082031 17.546875-10.011718 21.878907-19.144531l3.375-7.042969c1.253906-2.605468.777343-5.714843-1.199219-7.824218l-5.367188-5.675782c-6.925781-7.351562-16.558593-11.539062-26.65625-11.59375-10.097656-.050781-19.773437 4.035157-26.773437 11.3125l-15.246094 15.851563c-2.683594 2.785156-2.597656 7.21875.1875 9.898437 2.785156 2.679688 7.21875 2.597657 9.898438-.1875l15.25-15.84375c4.296874-4.574218 10.328124-7.121093 16.605468-7.015624 6.273438.011718 12.257813 2.617187 16.539063 7.203124l2.066406 2.191407-1.300781 2.710937c-2.691406 5.65625-7.605469 9.945313-13.570313 11.851563zm0 0" fill="url(#linear0)"/></svg>